<svg width="40" height="40" viewBox="0 0 40 40" fill="none" xmlns="http://www.w3.org/2000/svg">
<path d="M13.6668 21.9911C13.2553 21.6228 12.6231 21.6579 12.2548 22.0694C11.8865 22.481 11.9216 23.1132 12.3332 23.4815L13.6668 21.9911ZM20 29L19.3332 29.7452C19.7128 30.0849 20.2872 30.0849 20.6668 29.7452L20 29ZM27.6668 23.4815C28.0784 23.1132 28.1135 22.481 27.7452 22.0694C27.3769 21.6579 26.7447 21.6228 26.3332 21.9911L27.6668 23.4815ZM21 11C21 10.4477 20.5523 10 20 10C19.4477 10 19 10.4477 19 11L21 11ZM12.3332 23.4815L19.3332 29.7452L20.6668 28.2548L13.6668 21.9911L12.3332 23.4815ZM20.6668 29.7452L27.6668 23.4815L26.3332 21.9911L19.3332 28.2548L20.6668 29.7452ZM21 29L21 11L19 11L19 29L21 29Z" fill="#0D1C33"/>
<path d="M13.6668 21.9911C13.2553 21.6228 12.6231 21.6579 12.2548 22.0694C11.8865 22.481 11.9216 23.1132 12.3332 23.4815L13.6668 21.9911ZM20 29L19.3332 29.7452C19.7128 30.0849 20.2872 30.0849 20.6668 29.7452L20 29ZM27.6668 23.4815C28.0784 23.1132 28.1135 22.481 27.7452 22.0694C27.3769 21.6579 26.7447 21.6228 26.3332 21.9911L27.6668 23.4815ZM21 11C21 10.4477 20.5523 10 20 10C19.4477 10 19 10.4477 19 11L21 11ZM12.3332 23.4815L19.3332 29.7452L20.6668 28.2548L13.6668 21.9911L12.3332 23.4815ZM20.6668 29.7452L27.6668 23.4815L26.3332 21.9911L19.3332 28.2548L20.6668 29.7452ZM21 29L21 11L19 11L19 29L21 29Z" fill="#0C2445"/>
</svg>
