<svg width="120" height="48" viewBox="0 0 120 48" fill="none" xmlns="http://www.w3.org/2000/svg">
<rect x="48" width="48" height="48" rx="24" transform="rotate(90 48 0)" fill="#F2F7FC"/>
<path d="M22.0089 17.6668C22.3772 17.2553 22.3421 16.6231 21.9306 16.2548C21.519 15.8865 20.8868 15.9216 20.5185 16.3332L22.0089 17.6668ZM15 24L14.2548 23.3332C13.9151 23.7128 13.9151 24.2872 14.2548 24.6668L15 24ZM20.5185 31.6668C20.8868 32.0784 21.519 32.1135 21.9306 31.7452C22.3421 31.3769 22.3772 30.7447 22.0089 30.3332L20.5185 31.6668ZM33 25C33.5523 25 34 24.5523 34 24C34 23.4477 33.5523 23 33 23V25ZM20.5185 16.3332L14.2548 23.3332L15.7452 24.6668L22.0089 17.6668L20.5185 16.3332ZM14.2548 24.6668L20.5185 31.6668L22.0089 30.3332L15.7452 23.3332L14.2548 24.6668ZM15 25H33V23H15V25Z" fill="#0D1C33"/>
<path d="M22.0089 17.6668C22.3772 17.2553 22.3421 16.6231 21.9306 16.2548C21.519 15.8865 20.8868 15.9216 20.5185 16.3332L22.0089 17.6668ZM15 24L14.2548 23.3332C13.9151 23.7128 13.9151 24.2872 14.2548 24.6668L15 24ZM20.5185 31.6668C20.8868 32.0784 21.519 32.1135 21.9306 31.7452C22.3421 31.3769 22.3772 30.7447 22.0089 30.3332L20.5185 31.6668ZM33 25C33.5523 25 34 24.5523 34 24C34 23.4477 33.5523 23 33 23V25ZM20.5185 16.3332L14.2548 23.3332L15.7452 24.6668L22.0089 17.6668L20.5185 16.3332ZM14.2548 24.6668L20.5185 31.6668L22.0089 30.3332L15.7452 23.3332L14.2548 24.6668ZM15 25H33V23H15V25Z" fill="#0C2445"/>
<rect x="72" y="48" width="48" height="48" rx="24" transform="rotate(-90 72 48)" fill="#F2F7FC"/>
<path d="M97.9911 30.3332C97.6228 30.7447 97.6579 31.3769 98.0694 31.7452C98.481 32.1135 99.1132 32.0784 99.4815 31.6668L97.9911 30.3332ZM105 24L105.745 24.6668C106.085 24.2872 106.085 23.7128 105.745 23.3332L105 24ZM99.4815 16.3332C99.1132 15.9216 98.481 15.8865 98.0694 16.2548C97.6579 16.6231 97.6228 17.2553 97.9911 17.6668L99.4815 16.3332ZM87 23C86.4477 23 86 23.4477 86 24C86 24.5523 86.4477 25 87 25L87 23ZM99.4815 31.6668L105.745 24.6668L104.255 23.3332L97.9911 30.3332L99.4815 31.6668ZM105.745 23.3332L99.4815 16.3332L97.9911 17.6668L104.255 24.6668L105.745 23.3332ZM105 23L87 23L87 25L105 25L105 23Z" fill="#0D1C33"/>
<path d="M97.9911 30.3332C97.6228 30.7447 97.6579 31.3769 98.0694 31.7452C98.481 32.1135 99.1132 32.0784 99.4815 31.6668L97.9911 30.3332ZM105 24L105.745 24.6668C106.085 24.2872 106.085 23.7128 105.745 23.3332L105 24ZM99.4815 16.3332C99.1132 15.9216 98.481 15.8865 98.0694 16.2548C97.6579 16.6231 97.6228 17.2553 97.9911 17.6668L99.4815 16.3332ZM87 23C86.4477 23 86 23.4477 86 24C86 24.5523 86.4477 25 87 25L87 23ZM99.4815 31.6668L105.745 24.6668L104.255 23.3332L97.9911 30.3332L99.4815 31.6668ZM105.745 23.3332L99.4815 16.3332L97.9911 17.6668L104.255 24.6668L105.745 23.3332ZM105 23L87 23L87 25L105 25L105 23Z" fill="#0C2445"/>
</svg>
