<svg width="16" height="17" viewBox="0 0 16 17" fill="none" xmlns="http://www.w3.org/2000/svg">
<g opacity="0.5">
<path d="M2.86195 12.6951L7.05728 8.49973L2.86195 4.3044C2.74051 4.17866 2.67331 4.01026 2.67483 3.83546C2.67635 3.66066 2.74646 3.49345 2.87007 3.36985C2.99367 3.24624 3.16088 3.17613 3.33568 3.17461C3.51048 3.17309 3.67888 3.24029 3.80461 3.36173L7.99995 7.55706L12.1953 3.36173C12.2568 3.29806 12.3303 3.24727 12.4117 3.21233C12.493 3.17739 12.5805 3.159 12.669 3.15823C12.7575 3.15746 12.8453 3.17433 12.9272 3.20785C13.0092 3.24137 13.0836 3.29087 13.1462 3.35347C13.2088 3.41606 13.2583 3.49049 13.2918 3.57243C13.3253 3.65436 13.3422 3.74214 13.3414 3.83066C13.3407 3.91918 13.3223 4.00666 13.2873 4.088C13.2524 4.16933 13.2016 4.2429 13.1379 4.3044L8.94261 8.49973L13.1379 12.6951C13.2016 12.7566 13.2524 12.8301 13.2873 12.9115C13.3223 12.9928 13.3407 13.0803 13.3414 13.1688C13.3422 13.2573 13.3253 13.3451 13.2918 13.427C13.2583 13.509 13.2088 13.5834 13.1462 13.646C13.0836 13.7086 13.0092 13.7581 12.9272 13.7916C12.8453 13.8251 12.7575 13.842 12.669 13.8412C12.5805 13.8405 12.493 13.8221 12.4117 13.7871C12.3303 13.7522 12.2568 13.7014 12.1953 13.6377L7.99995 9.4424L3.80461 13.6377C3.67888 13.7592 3.51048 13.8264 3.33568 13.8248C3.16088 13.8233 2.99367 13.7532 2.87007 13.6296C2.74646 13.506 2.67635 13.3388 2.67483 13.164C2.67331 12.9892 2.74051 12.8208 2.86195 12.6951Z" fill="#F2F7FC"/>
</g>
</svg>
