<svg width="56" height="56" viewBox="0 0 56 56" fill="none" xmlns="http://www.w3.org/2000/svg">
<rect width="56" height="56" rx="28" fill="#F2F7FC"/>
<path d="M21.6668 29.9911C21.2553 29.6228 20.6231 29.6579 20.2548 30.0694C19.8865 30.481 19.9216 31.1132 20.3332 31.4815L21.6668 29.9911ZM28 37L27.3332 37.7452C27.7128 38.0849 28.2872 38.0849 28.6668 37.7452L28 37ZM35.6668 31.4815C36.0784 31.1132 36.1135 30.481 35.7452 30.0694C35.3769 29.6579 34.7447 29.6228 34.3332 29.9911L35.6668 31.4815ZM29 19C29 18.4477 28.5523 18 28 18C27.4477 18 27 18.4477 27 19L29 19ZM20.3332 31.4815L27.3332 37.7452L28.6668 36.2548L21.6668 29.9911L20.3332 31.4815ZM28.6668 37.7452L35.6668 31.4815L34.3332 29.9911L27.3332 36.2548L28.6668 37.7452ZM29 37L29 19L27 19L27 37L29 37Z" fill="#0D1C33"/>
<path d="M21.6668 29.9911C21.2553 29.6228 20.6231 29.6579 20.2548 30.0694C19.8865 30.481 19.9216 31.1132 20.3332 31.4815L21.6668 29.9911ZM28 37L27.3332 37.7452C27.7128 38.0849 28.2872 38.0849 28.6668 37.7452L28 37ZM35.6668 31.4815C36.0784 31.1132 36.1135 30.481 35.7452 30.0694C35.3769 29.6579 34.7447 29.6228 34.3332 29.9911L35.6668 31.4815ZM29 19C29 18.4477 28.5523 18 28 18C27.4477 18 27 18.4477 27 19L29 19ZM20.3332 31.4815L27.3332 37.7452L28.6668 36.2548L21.6668 29.9911L20.3332 31.4815ZM28.6668 37.7452L35.6668 31.4815L34.3332 29.9911L27.3332 36.2548L28.6668 37.7452ZM29 37L29 19L27 19L27 37L29 37Z" fill="#0C2445"/>
</svg>
