<svg width="24" height="25" viewBox="0 0 24 25" fill="none" xmlns="http://www.w3.org/2000/svg">
<path opacity="0.2" d="M16.125 3.83691H7.875C6.68153 3.83691 5.53693 4.31102 4.69302 5.15493C3.84911 5.99885 3.375 7.14344 3.375 8.33691V16.5869C3.375 17.7804 3.84911 18.925 4.69302 19.7689C5.53693 20.6128 6.68153 21.0869 7.875 21.0869H16.125C17.3185 21.0869 18.4631 20.6128 19.307 19.7689C20.1509 18.925 20.625 17.7804 20.625 16.5869V8.33691C20.625 7.14344 20.1509 5.99885 19.307 5.15493C18.4631 4.31102 17.3185 3.83691 16.125 3.83691ZM12 16.2119C11.2583 16.2119 10.5333 15.992 9.91661 15.5799C9.29993 15.1679 8.81928 14.5822 8.53545 13.897C8.25162 13.2118 8.17736 12.4578 8.32205 11.7303C8.46675 11.0029 8.8239 10.3347 9.34835 9.81026C9.8728 9.28582 10.541 8.92866 11.2684 8.78397C11.9958 8.63927 12.7498 8.71354 13.4351 8.99737C14.1203 9.28119 14.706 9.76184 15.118 10.3785C15.5301 10.9952 15.75 11.7202 15.75 12.4619C15.75 13.4565 15.3549 14.4103 14.6517 15.1136C13.9484 15.8168 12.9946 16.2119 12 16.2119Z" fill="#F2F7FC"/>
<path d="M12.0002 16.2119C14.0713 16.2119 15.7502 14.533 15.7502 12.4619C15.7502 10.3908 14.0713 8.71191 12.0002 8.71191C9.92918 8.71191 8.25024 10.3908 8.25024 12.4619C8.25024 14.533 9.92918 16.2119 12.0002 16.2119Z" stroke="#F2F7FC" stroke-width="1.53366" stroke-miterlimit="10"/>
<path d="M16.125 3.83691H7.875C5.38972 3.83691 3.375 5.85163 3.375 8.33691V16.5869C3.375 19.0722 5.38972 21.0869 7.875 21.0869H16.125C18.6103 21.0869 20.625 19.0722 20.625 16.5869V8.33691C20.625 5.85163 18.6103 3.83691 16.125 3.83691Z" stroke="#F2F7FC" stroke-width="1.53366" stroke-linecap="round" stroke-linejoin="round"/>
<path d="M16.875 8.71191C17.4963 8.71191 18 8.20823 18 7.58691C18 6.96559 17.4963 6.46191 16.875 6.46191C16.2537 6.46191 15.75 6.96559 15.75 7.58691C15.75 8.20823 16.2537 8.71191 16.875 8.71191Z" fill="#F2F7FC"/>
</svg>
