<svg width="130" height="52" viewBox="0 0 130 52" fill="none" xmlns="http://www.w3.org/2000/svg">
<path d="M9.43938 36.6612C7.7871 36.6612 6.36848 36.3775 5.18352 35.81C3.99855 35.2259 3.03055 34.4665 2.27952 33.5319C1.52848 32.5806 0.969379 31.5625 0.602207 30.4777C0.251724 29.3762 0.0764826 28.308 0.0764826 27.2733V26.7225C0.0764826 25.5876 0.260069 24.4694 0.627241 23.3679C0.994414 22.2497 1.55352 21.24 2.30455 20.3387C3.07228 19.4375 4.03193 18.7198 5.18352 18.1858C6.35179 17.635 7.72869 17.3596 9.31421 17.3596C10.9665 17.3596 12.4268 17.6684 13.6952 18.2859C14.9637 18.9034 15.9734 19.7629 16.7244 20.8644C17.4921 21.9493 17.9428 23.226 18.0763 24.6947H13.9456C13.8288 23.9604 13.5617 23.3345 13.1445 22.8171C12.7272 22.2998 12.1848 21.8992 11.5172 21.6155C10.8663 21.3318 10.132 21.1899 9.31421 21.1899C8.49641 21.1899 7.77041 21.3318 7.13621 21.6155C6.502 21.8992 5.96793 22.2998 5.534 22.8171C5.11676 23.3345 4.79131 23.952 4.55765 24.6697C4.34069 25.3707 4.23221 26.1551 4.23221 27.0229C4.23221 27.8741 4.34069 28.6585 4.55765 29.3762C4.79131 30.0771 5.1251 30.6947 5.55903 31.2287C6.00965 31.7461 6.56041 32.1467 7.21131 32.4304C7.86221 32.6974 8.6049 32.8309 9.43938 32.8309C10.7078 32.8309 11.7759 32.5222 12.6438 31.9047C13.5283 31.2871 14.0624 30.436 14.246 29.3511H18.3517C18.2014 30.6863 17.7508 31.913 16.9998 33.0312C16.2654 34.1327 15.2557 35.0173 13.9706 35.6849C12.7022 36.3358 11.1918 36.6612 9.43938 36.6612ZM27.5344 36.6612C26.3328 36.6612 25.2646 36.4776 24.33 36.1104C23.3954 35.7266 22.6026 35.2092 21.9517 34.5583C21.3175 33.9074 20.8335 33.1647 20.4997 32.3302C20.1659 31.4791 19.999 30.5862 19.999 29.6515V29.0758C19.999 28.1244 20.1659 27.2232 20.4997 26.372C20.8502 25.5042 21.3509 24.7448 22.0018 24.0939C22.6694 23.443 23.4705 22.934 24.4051 22.5668C25.3397 22.1829 26.3828 21.991 27.5344 21.991C28.7194 21.991 29.7708 22.1829 30.6888 22.5668C31.6234 22.934 32.4161 23.443 33.067 24.0939C33.7179 24.7448 34.2186 25.5042 34.5691 26.372C34.9196 27.2232 35.0948 28.1244 35.0948 29.0758V29.6515C35.0948 30.5862 34.9279 31.4791 34.5941 32.3302C34.2603 33.1647 33.768 33.9074 33.1171 34.5583C32.4829 35.2092 31.6985 35.7266 30.7639 36.1104C29.8292 36.4776 28.7528 36.6612 27.5344 36.6612ZM27.5344 33.2815C28.3188 33.2815 28.9697 33.1147 29.4871 32.7809C30.0045 32.4471 30.3967 31.9798 30.6637 31.3789C30.9475 30.7781 31.0893 30.1105 31.0893 29.3762C31.0893 28.5918 30.9475 27.9075 30.6637 27.3233C30.38 26.7225 29.9711 26.2469 29.437 25.8964C28.9197 25.5459 28.2855 25.3707 27.5344 25.3707C26.8001 25.3707 26.1659 25.5459 25.6318 25.8964C25.0977 26.2469 24.6888 26.7225 24.4051 27.3233C24.1381 27.9075 24.0046 28.5918 24.0046 29.3762C24.0046 30.1105 24.1381 30.7781 24.4051 31.3789C24.6721 31.9798 25.0727 32.4471 25.6068 32.7809C26.1408 33.1147 26.7834 33.2815 27.5344 33.2815ZM42.5217 36.6111C40.9361 36.6111 39.7178 36.1021 38.8666 35.084C38.0155 34.0493 37.5899 32.4971 37.5899 30.4276V22.4667H41.5954V30.6279C41.5954 31.3622 41.804 31.9464 42.2212 32.3803C42.6385 32.8142 43.1976 33.0312 43.8986 33.0312C44.6162 33.0312 45.2003 32.8059 45.651 32.3553C46.1016 31.9047 46.3269 31.2955 46.3269 30.5278V22.4667H50.3324V36.1855H47.153V30.4026H47.4284C47.4284 31.7878 47.2448 32.9478 46.8777 33.8824C46.5272 34.8003 46.0015 35.4846 45.3005 35.9352C44.5995 36.3858 43.7317 36.6111 42.6969 36.6111H42.5217ZM54.0258 36.1855V22.4667H57.2052V28.3498H57.1301C57.1301 26.4138 57.539 24.92 58.3567 23.8686C59.1912 22.8171 60.3929 22.2914 61.9617 22.2914H62.4874V25.7462H61.4861C60.3845 25.7462 59.5334 26.0466 58.9325 26.6474C58.3317 27.2315 58.0313 28.0827 58.0313 29.2009V36.1855H54.0258ZM69.7699 36.6111C67.8172 36.6111 66.2901 36.2106 65.1886 35.4095C64.0871 34.6084 63.503 33.4818 63.4362 32.0298H66.9911C67.0579 32.4638 67.3166 32.856 67.7672 33.2064C68.2345 33.5402 68.9271 33.7071 69.845 33.7071C70.546 33.7071 71.1218 33.5903 71.5724 33.3567C72.0397 33.1063 72.2734 32.7558 72.2734 32.3052C72.2734 31.9047 72.0981 31.5875 71.7477 31.3539C71.3972 31.1035 70.7713 30.9283 69.8701 30.8282L68.7936 30.728C67.1413 30.5611 65.8979 30.1022 65.0634 29.3511C64.2457 28.6001 63.8368 27.6404 63.8368 26.4722C63.8368 25.5042 64.0788 24.6947 64.5628 24.0438C65.0468 23.3929 65.7143 22.9006 66.5655 22.5668C67.4334 22.233 68.4181 22.0661 69.5196 22.0661C71.2887 22.0661 72.7157 22.4583 73.8005 23.2427C74.8853 24.0104 75.4528 25.1287 75.5028 26.5973H71.9479C71.8812 26.1467 71.6475 25.7712 71.247 25.4708C70.8464 25.1537 70.2539 24.9951 69.4695 24.9951C68.852 24.9951 68.3597 25.112 67.9925 25.3456C67.6253 25.5793 67.4417 25.8964 67.4417 26.2969C67.4417 26.6808 67.6003 26.9729 67.9174 27.1731C68.2345 27.3734 68.7519 27.5153 69.4695 27.5987L70.546 27.6989C72.2317 27.8824 73.5418 28.3498 74.4764 29.1008C75.411 29.8518 75.8783 30.8615 75.8783 32.13C75.8783 33.0479 75.628 33.849 75.1273 34.5333C74.6266 35.2009 73.9173 35.7182 72.9994 36.0854C72.0814 36.4359 71.005 36.6111 69.7699 36.6111ZM84.7572 36.6612C83.5889 36.6612 82.5541 36.4609 81.6529 36.0604C80.7683 35.6598 80.0257 35.1258 79.4248 34.4582C78.8407 33.7739 78.3901 33.0145 78.073 32.18C77.7725 31.3289 77.6223 30.461 77.6223 29.5764V29.0758C77.6223 28.1578 77.7725 27.2816 78.073 26.4471C78.3901 25.596 78.8407 24.8366 79.4248 24.169C80.009 23.5014 80.735 22.9757 81.6028 22.5918C82.4874 22.1913 83.4888 21.991 84.607 21.991C86.0757 21.991 87.3107 22.3248 88.3121 22.9924C89.3301 23.6433 90.1062 24.5028 90.6403 25.5709C91.1743 26.6224 91.4414 27.774 91.4414 29.0257V30.3775H79.2997V28.0994H89.013L87.7112 29.1509C87.7112 28.3331 87.5944 27.6321 87.3608 27.048C87.1271 26.4638 86.7766 26.0215 86.3093 25.7211C85.8587 25.404 85.2912 25.2455 84.607 25.2455C83.906 25.2455 83.3135 25.404 82.8295 25.7211C82.3455 26.0382 81.9783 26.5055 81.728 27.1231C81.4777 27.7239 81.3525 28.4666 81.3525 29.3511C81.3525 30.1689 81.4693 30.8866 81.703 31.5041C81.9366 32.1049 82.3038 32.5722 82.8045 32.906C83.3052 33.2398 83.9561 33.4067 84.7572 33.4067C85.4915 33.4067 86.0923 33.2649 86.5597 32.9811C87.027 32.6974 87.3441 32.3469 87.511 31.9297H91.191C90.9908 32.8476 90.5985 33.6654 90.0144 34.3831C89.4303 35.1007 88.6959 35.6598 87.8114 36.0604C86.9268 36.4609 85.9088 36.6612 84.7572 36.6612ZM106.337 36.1855L100.029 27.6488H97.5003L105.161 17.9104H109.867L102.983 26.6474L102.933 24.87L111.294 36.1855H106.337ZM94.3209 36.1855V17.9104H98.4266V36.1855H94.3209ZM113.571 36.1855V22.4667H117.577V36.1855H113.571ZM111.744 25.4207V22.4667H117.577V25.4207H111.744ZM115.123 21.1148C114.372 21.1148 113.813 20.9229 113.446 20.539C113.096 20.1384 112.92 19.6378 112.92 19.0369C112.92 18.4194 113.096 17.9187 113.446 17.5349C113.813 17.1343 114.372 16.934 115.123 16.934C115.874 16.934 116.425 17.1343 116.776 17.5349C117.143 17.9187 117.326 18.4194 117.326 19.0369C117.326 19.6378 117.143 20.1384 116.776 20.539C116.425 20.9229 115.874 21.1148 115.123 21.1148ZM127.515 36.3608C126.13 36.3608 125.012 36.1939 124.16 35.8601C123.309 35.5096 122.683 34.9338 122.283 34.1327C121.899 33.3149 121.707 32.2134 121.707 30.8282V18.7615H125.437V30.9784C125.437 31.6293 125.604 32.13 125.938 32.4804C126.288 32.8142 126.781 32.9811 127.415 32.9811H129.443V36.3608H127.515ZM119.629 25.3957V22.4667H129.443V25.3957H119.629Z" fill="#FFC2C0"/>
</svg>
