<svg width="91" height="36" viewBox="0 0 91 36" fill="none" xmlns="http://www.w3.org/2000/svg">
<path d="M6.59453 24.386C5.4402 24.386 4.44911 24.1878 3.62126 23.7914C2.79341 23.3833 2.11713 22.8527 1.59244 22.1998C1.06774 21.5352 0.677137 20.8239 0.420619 20.066C0.175762 19.2965 0.0533327 18.5502 0.0533327 17.8273V17.4426C0.0533327 16.6497 0.181592 15.8685 0.438109 15.0989C0.694627 14.3177 1.08523 13.6123 1.60993 12.9826C2.14628 12.353 2.81673 11.8516 3.62126 11.4785C4.43745 11.0937 5.39939 10.9013 6.50708 10.9013C7.66141 10.9013 8.68166 11.1171 9.56781 11.5485C10.454 11.9799 11.1594 12.5804 11.6841 13.3499C12.2204 14.1078 12.5352 14.9998 12.6285 16.0259H9.7427C9.66109 15.5128 9.47453 15.0756 9.18303 14.7141C8.89153 14.3527 8.51259 14.0728 8.04619 13.8746C7.59145 13.6764 7.07842 13.5773 6.50708 13.5773C5.93575 13.5773 5.42854 13.6764 4.98547 13.8746C4.54239 14.0728 4.16928 14.3527 3.86612 14.7141C3.57462 15.0756 3.34725 15.507 3.18401 16.0084C3.03244 16.4981 2.95665 17.0461 2.95665 17.6524C2.95665 18.2471 3.03244 18.7951 3.18401 19.2965C3.34725 19.7862 3.58045 20.2176 3.88361 20.5907C4.19843 20.9522 4.5832 21.232 5.03794 21.4302C5.49267 21.6168 6.01154 21.7101 6.59453 21.7101C7.48069 21.7101 8.22692 21.4944 8.83323 21.0629C9.45121 20.6315 9.82432 20.0369 9.95258 19.279H12.8209C12.716 20.2118 12.4012 21.0688 11.8765 21.85C11.3634 22.6195 10.658 23.2375 9.7602 23.7039C8.87404 24.1586 7.81882 24.386 6.59453 24.386ZM19.2363 24.386C18.3968 24.386 17.6505 24.2578 16.9976 24.0012C16.3446 23.7331 15.7908 23.3716 15.336 22.9169C14.893 22.4621 14.5548 21.9433 14.3216 21.3603C14.0884 20.7656 13.9718 20.1418 13.9718 19.4889V19.0866C13.9718 18.422 14.0884 17.7923 14.3216 17.1977C14.5665 16.5914 14.9163 16.0609 15.371 15.6061C15.8374 15.1514 16.3971 14.7958 17.05 14.5392C17.703 14.2711 18.4317 14.137 19.2363 14.137C20.0641 14.137 20.7987 14.2711 21.44 14.5392C22.0929 14.7958 22.6468 15.1514 23.1015 15.6061C23.5563 16.0609 23.9061 16.5914 24.1509 17.1977C24.3958 17.7923 24.5182 18.422 24.5182 19.0866V19.4889C24.5182 20.1418 24.4016 20.7656 24.1684 21.3603C23.9352 21.9433 23.5912 22.4621 23.1365 22.9169C22.6934 23.3716 22.1454 23.7331 21.4925 24.0012C20.8395 24.2578 20.0874 24.386 19.2363 24.386ZM19.2363 22.0249C19.7843 22.0249 20.239 21.9083 20.6005 21.6751C20.9619 21.4419 21.2359 21.1154 21.4225 20.6957C21.6207 20.2759 21.7198 19.8095 21.7198 19.2965C21.7198 18.7485 21.6207 18.2704 21.4225 17.8623C21.2243 17.4426 20.9386 17.1102 20.5655 16.8654C20.204 16.6205 19.761 16.4981 19.2363 16.4981C18.7232 16.4981 18.2802 16.6205 17.907 16.8654C17.5339 17.1102 17.2483 17.4426 17.05 17.8623C16.8635 18.2704 16.7702 18.7485 16.7702 19.2965C16.7702 19.8095 16.8635 20.2759 17.05 20.6957C17.2366 21.1154 17.5164 21.4419 17.8896 21.6751C18.2627 21.9083 18.7116 22.0249 19.2363 22.0249ZM29.7068 24.351C28.5991 24.351 27.748 23.9954 27.1533 23.2842C26.5586 22.5612 26.2613 21.4769 26.2613 20.031V14.4693H29.0597V20.171C29.0597 20.684 29.2054 21.0921 29.4969 21.3953C29.7884 21.6984 30.179 21.85 30.6688 21.85C31.1701 21.85 31.5782 21.6926 31.893 21.3778C32.2079 21.0629 32.3653 20.6374 32.3653 20.101V14.4693H35.1636V24.0537H32.9424V20.0136H33.1348C33.1348 20.9813 33.0066 21.7917 32.75 22.4446C32.5052 23.0859 32.1379 23.564 31.6482 23.8788C31.1585 24.1936 30.5522 24.351 29.8292 24.351H29.7068ZM37.7439 24.0537V14.4693H39.9652V18.5794H39.9127C39.9127 17.2268 40.1983 16.1833 40.7697 15.4487C41.3527 14.7141 42.1922 14.3468 43.2882 14.3468H43.6555V16.7604H42.9559C42.1864 16.7604 41.5917 16.9703 41.1719 17.3901C40.7522 17.7982 40.5423 18.3928 40.5423 19.174V24.0537H37.7439ZM48.7433 24.351C47.3791 24.351 46.3122 24.0712 45.5426 23.5115C44.7731 22.9519 44.365 22.1648 44.3183 21.1504H46.8019C46.8485 21.4536 47.0293 21.7276 47.3441 21.9724C47.6706 22.2056 48.1544 22.3222 48.7957 22.3222C49.2855 22.3222 49.6877 22.2406 50.0025 22.0774C50.329 21.9025 50.4923 21.6576 50.4923 21.3428C50.4923 21.0629 50.3698 20.8414 50.125 20.6782C49.8801 20.5033 49.4429 20.3808 48.8132 20.3109L48.0612 20.2409C46.9068 20.1243 46.0382 19.8037 45.4552 19.279C44.8838 18.7543 44.5982 18.0838 44.5982 17.2677C44.5982 16.5914 44.7673 16.0259 45.1054 15.5711C45.4435 15.1164 45.9099 14.7724 46.5046 14.5392C47.1109 14.306 47.7988 14.1894 48.5684 14.1894C49.8043 14.1894 50.8012 14.4634 51.5591 15.0115C52.317 15.5478 52.7135 16.329 52.7484 17.3551H50.2649C50.2183 17.0403 50.055 16.7779 49.7752 16.5681C49.4953 16.3465 49.0814 16.2358 48.5334 16.2358C48.102 16.2358 47.758 16.3174 47.5015 16.4806C47.245 16.6438 47.1167 16.8654 47.1167 17.1452C47.1167 17.4134 47.2275 17.6174 47.449 17.7574C47.6706 17.8973 48.032 17.9964 48.5334 18.0547L49.2855 18.1247C50.4631 18.2529 51.3784 18.5794 52.0314 19.1041C52.6843 19.6288 53.0108 20.3342 53.0108 21.2204C53.0108 21.8617 52.8359 22.4213 52.4861 22.8994C52.1363 23.3658 51.6408 23.7272 50.9995 23.9838C50.3582 24.2286 49.6061 24.351 48.7433 24.351ZM59.2138 24.386C58.3976 24.386 57.6747 24.2461 57.0451 23.9663C56.4271 23.6864 55.9082 23.3133 55.4885 22.8469C55.0804 22.3689 54.7656 21.8383 54.544 21.2553C54.3341 20.6607 54.2292 20.0544 54.2292 19.4364V19.0866C54.2292 18.4453 54.3341 17.8332 54.544 17.2502C54.7656 16.6555 55.0804 16.125 55.4885 15.6586C55.8966 15.1922 56.4038 14.8249 57.0101 14.5567C57.6281 14.2769 58.3277 14.137 59.1089 14.137C60.1349 14.137 60.9978 14.3702 61.6974 14.8366C62.4086 15.2913 62.9508 15.8918 63.3239 16.638C63.697 17.3726 63.8836 18.1771 63.8836 19.0516V19.9961H55.401V18.4045H62.1871L61.2776 19.1391C61.2776 18.5677 61.196 18.078 61.0328 17.6699C60.8695 17.2618 60.6247 16.9528 60.2982 16.743C59.9834 16.5214 59.5869 16.4107 59.1089 16.4107C58.6192 16.4107 58.2052 16.5214 57.8671 16.743C57.529 16.9645 57.2724 17.291 57.0975 17.7224C56.9226 18.1421 56.8352 18.661 56.8352 19.279C56.8352 19.8503 56.9168 20.3517 57.0801 20.7831C57.2433 21.2029 57.4998 21.5293 57.8496 21.7625C58.1994 21.9957 58.6541 22.1123 59.2138 22.1123C59.7268 22.1123 60.1466 22.0132 60.4731 21.815C60.7996 21.6168 61.0211 21.3719 61.1377 21.0804H63.7087C63.5688 21.7217 63.2948 22.2931 62.8867 22.7944C62.4786 23.2958 61.9655 23.6864 61.3476 23.9663C60.7296 24.2461 60.0183 24.386 59.2138 24.386ZM74.2905 24.0537L69.883 18.0897H68.1166L73.4684 11.2861H76.7565L71.9468 17.3901L71.9118 16.1483L77.7535 24.0537H74.2905ZM65.8953 24.0537V11.2861H68.7637V24.0537H65.8953ZM79.3442 24.0537V14.4693H82.1426V24.0537H79.3442ZM78.0675 16.5331V14.4693H82.1426V16.5331H78.0675ZM80.4286 13.5248C79.9039 13.5248 79.5133 13.3907 79.2568 13.1226C79.0119 12.8427 78.8895 12.4929 78.8895 12.0732C78.8895 11.6418 79.0119 11.292 79.2568 11.0238C79.5133 10.7439 79.9039 10.604 80.4286 10.604C80.9533 10.604 81.3381 10.7439 81.5829 11.0238C81.8394 11.292 81.9677 11.6418 81.9677 12.0732C81.9677 12.4929 81.8394 12.8427 81.5829 13.1226C81.3381 13.3907 80.9533 13.5248 80.4286 13.5248ZM89.0858 24.1761C88.118 24.1761 87.3368 24.0595 86.7421 23.8263C86.1475 23.5815 85.7102 23.1792 85.4304 22.6195C85.1622 22.0482 85.0281 21.2787 85.0281 20.3109V11.8808H87.6341V20.4158C87.6341 20.8706 87.7507 21.2204 87.9839 21.4652C88.2288 21.6984 88.5727 21.815 89.0158 21.815H90.4325V24.1761H89.0858ZM83.5765 16.5156V14.4693H90.4325V16.5156H83.5765Z" fill="#FFC2C0"/>
</svg>
