<svg width="64" height="64" viewBox="0 0 64 64" fill="none" xmlns="http://www.w3.org/2000/svg">
<path opacity="0.2" d="M32 8C27.2533 8 22.6131 9.40758 18.6663 12.0447C14.7195 14.6819 11.6434 18.4302 9.8269 22.8156C8.0104 27.201 7.53512 32.0266 8.46116 36.6822C9.38721 41.3377 11.673 45.6141 15.0294 48.9706C18.3859 52.327 22.6623 54.6128 27.3178 55.5388C31.9734 56.4649 36.799 55.9896 41.1844 54.1731C45.5698 52.3566 49.3181 49.2805 51.9553 45.3337C54.5924 41.3869 56 36.7468 56 32C56 25.6348 53.4714 19.5303 48.9706 15.0294C44.4697 10.5286 38.3652 8 32 8ZM28 40V24L40 32L28 40Z" fill="#F2F7FC"/>
<path d="M32 56C45.2548 56 56 45.2548 56 32C56 18.7452 45.2548 8 32 8C18.7452 8 8 18.7452 8 32C8 45.2548 18.7452 56 32 56Z" stroke="#F2F7FC" stroke-width="2" stroke-miterlimit="10"/>
<path d="M40 32L28 24V40L40 32Z" stroke="#F2F7FC" stroke-width="2" stroke-linecap="round" stroke-linejoin="round"/>
</svg>
