<svg width="32" height="32" viewBox="0 0 32 32" fill="none" xmlns="http://www.w3.org/2000/svg">
<rect width="32" height="32" rx="16" fill="#E66BBA"/>
<path opacity="0.2" d="M16.3439 20.8985L20.2814 23.3985C20.7892 23.7188 21.4142 23.2422 21.2657 22.6563L20.1251 18.1719C20.0943 18.0476 20.0992 17.9171 20.1393 17.7955C20.1793 17.6738 20.253 17.566 20.3517 17.4844L23.8829 14.5391C24.3439 14.1563 24.1095 13.3828 23.5079 13.3438L18.8986 13.0469C18.7728 13.0396 18.6519 12.9958 18.5506 12.9209C18.4493 12.8459 18.372 12.7431 18.3282 12.625L16.6095 8.29689C16.564 8.17182 16.4811 8.06377 16.3721 7.98742C16.2631 7.91107 16.1332 7.87012 16.0001 7.87012C15.867 7.87012 15.7372 7.91107 15.6281 7.98742C15.5191 8.06377 15.4362 8.17182 15.3907 8.29689L13.672 12.625C13.6282 12.7431 13.5509 12.8459 13.4496 12.9209C13.3484 12.9958 13.2274 13.0396 13.1017 13.0469L8.49231 13.3438C7.89074 13.3828 7.65637 14.1563 8.11731 14.5391L11.6486 17.4844C11.7473 17.566 11.8209 17.6738 11.861 17.7955C11.9011 17.9171 11.906 18.0476 11.8751 18.1719L10.8204 22.3281C10.6407 23.0313 11.3907 23.6016 11.9923 23.2188L15.6564 20.8985C15.7591 20.8331 15.8784 20.7984 16.0001 20.7984C16.1219 20.7984 16.2411 20.8331 16.3439 20.8985Z" fill="#F2F7FC"/>
<path d="M16.3439 20.8985L20.2814 23.3985C20.7892 23.7188 21.4142 23.2422 21.2657 22.6563L20.1251 18.1719C20.0943 18.0476 20.0992 17.9171 20.1393 17.7955C20.1793 17.6738 20.253 17.566 20.3517 17.4844L23.8829 14.5391C24.3439 14.1563 24.1095 13.3828 23.5079 13.3438L18.8986 13.0469C18.7728 13.0396 18.6519 12.9958 18.5506 12.9209C18.4493 12.8459 18.372 12.7431 18.3282 12.625L16.6095 8.29689C16.564 8.17182 16.4811 8.06377 16.3721 7.98742C16.2631 7.91107 16.1332 7.87012 16.0001 7.87012C15.867 7.87012 15.7372 7.91107 15.6281 7.98742C15.5191 8.06377 15.4362 8.17182 15.3907 8.29689L13.672 12.625C13.6282 12.7431 13.5509 12.8459 13.4496 12.9209C13.3484 12.9958 13.2274 13.0396 13.1017 13.0469L8.49231 13.3438C7.89074 13.3828 7.65637 14.1563 8.11731 14.5391L11.6486 17.4844C11.7473 17.566 11.8209 17.6738 11.861 17.7955C11.9011 17.9171 11.906 18.0476 11.8751 18.1719L10.8204 22.3281C10.6407 23.0313 11.3907 23.6016 11.9923 23.2188L15.6564 20.8985C15.7591 20.8331 15.8784 20.7984 16.0001 20.7984C16.1219 20.7984 16.2411 20.8331 16.3439 20.8985V20.8985Z" stroke="#F2F7FC" stroke-width="1.25" stroke-linecap="round" stroke-linejoin="round"/>
</svg>
