<svg width="24" height="25" viewBox="0 0 24 25" fill="none" xmlns="http://www.w3.org/2000/svg">
<path opacity="0.2" d="M15.75 10.3994C17.28 11.498 19.1164 12.0882 21 12.0869V8.33691C19.6076 8.33691 18.2723 7.78379 17.2877 6.79922C16.3031 5.81466 15.75 4.4793 15.75 3.08691H12V15.0869C12 15.5567 11.8739 16.0178 11.6349 16.4222C11.3959 16.8267 11.0528 17.1595 10.6413 17.3861C10.2298 17.6127 9.76502 17.7248 9.29548 17.7105C8.82594 17.6963 8.36882 17.5563 7.97181 17.3052C7.5748 17.0541 7.25245 16.7011 7.03838 16.2829C6.82432 15.8648 6.72639 15.3968 6.75481 14.9279C6.78323 14.4591 6.93695 14.0064 7.19995 13.6171C7.46294 13.2279 7.82557 12.9164 8.25 12.715V8.81504C7.05617 9.02907 5.94816 9.57923 5.05605 10.4009C4.16394 11.2226 3.52474 12.2818 3.21349 13.454C2.90224 14.6263 2.93185 15.863 3.29885 17.019C3.66585 18.175 4.355 19.2023 5.28541 19.9804C6.21583 20.7584 7.34889 21.2549 8.5516 21.4116C9.7543 21.5682 10.9767 21.3786 12.0754 20.8648C13.1741 20.351 14.1034 19.5345 14.7543 18.5111C15.4052 17.4876 15.7506 16.2998 15.75 15.0869V10.3994Z" fill="#F2F7FC"/>
<path d="M15.75 10.3994C17.28 11.498 19.1164 12.0882 21 12.0869V8.33691C19.6076 8.33691 18.2723 7.78379 17.2877 6.79922C16.3031 5.81466 15.75 4.4793 15.75 3.08691H12V15.0869C12 15.5567 11.8739 16.0178 11.6349 16.4222C11.3959 16.8267 11.0528 17.1595 10.6413 17.3861C10.2298 17.6127 9.76502 17.7248 9.29548 17.7105C8.82594 17.6963 8.36882 17.5563 7.97181 17.3052C7.5748 17.0541 7.25245 16.7011 7.03838 16.2829C6.82432 15.8648 6.72639 15.3968 6.75481 14.9279C6.78323 14.4591 6.93695 14.0064 7.19995 13.6171C7.46294 13.2279 7.82557 12.9164 8.25 12.715V8.81504C7.05617 9.02907 5.94816 9.57923 5.05605 10.4009C4.16394 11.2226 3.52474 12.2818 3.21349 13.454C2.90224 14.6263 2.93185 15.863 3.29885 17.019C3.66585 18.175 4.355 19.2023 5.28541 19.9804C6.21583 20.7584 7.34889 21.2549 8.5516 21.4116C9.7543 21.5682 10.9767 21.3786 12.0754 20.8648C13.1741 20.351 14.1034 19.5345 14.7543 18.5111C15.4052 17.4876 15.7506 16.2998 15.75 15.0869V10.3994Z" stroke="#F2F7FC" stroke-width="1.50482" stroke-linecap="round" stroke-linejoin="round"/>
</svg>
