<svg width="24" height="25" viewBox="0 0 24 25" fill="none" xmlns="http://www.w3.org/2000/svg">
<path opacity="0.2" d="M11.9998 8.71226C11.9998 6.64976 13.7341 4.93413 15.7966 4.96226C16.5189 4.97059 17.2235 5.18737 17.8255 5.58651C18.4276 5.98566 18.9015 6.5502 19.1904 7.21226H22.4998L19.4717 10.2404C19.2762 13.2822 17.9297 16.1354 15.7059 18.2199C13.4821 20.3044 10.5478 21.4638 7.49977 21.4623C4.49977 21.4623 3.74977 20.3373 3.74977 20.3373C3.74977 20.3373 6.74977 19.2123 8.24977 16.9623C8.24977 16.9623 2.24977 13.9623 3.74977 5.71226C3.74977 5.71226 7.49977 9.46226 11.9998 10.2123V8.71226Z" fill="#F2F7FC"/>
<path d="M11.9998 8.71226C11.9998 6.64976 13.7341 4.93413 15.7966 4.96226C16.5189 4.97059 17.2235 5.18737 17.8255 5.58651C18.4276 5.98566 18.9015 6.5502 19.1904 7.21226H22.4998L19.4716 10.2404C19.2762 13.2822 17.9297 16.1354 15.7059 18.2199C13.4821 20.3044 10.5478 21.4638 7.49977 21.4623C4.49977 21.4623 3.74977 20.3373 3.74977 20.3373C3.74977 20.3373 6.74977 19.2123 8.24977 16.9623C8.24977 16.9623 2.24977 13.9623 3.74977 5.71226C3.74977 5.71226 7.49977 9.46226 11.9998 10.2123V8.71226Z" stroke="#F2F7FC" stroke-width="1.53366" stroke-linecap="round" stroke-linejoin="round"/>
</svg>
